<svg width="132" height="129" viewBox="0 0 132 129" fill="none" xmlns="http://www.w3.org/2000/svg">
<g filter="url(#filter0_dd_2750_6093)">
<rect x="5" y="2" width="122" height="119" rx="5" fill="white"/>
<path d="M34.5774 75V71.682C36.9294 69.47 38.9874 67.468 40.7514 65.676C42.5154 63.856 43.8874 62.204 44.8674 60.72C45.8474 59.236 46.3374 57.836 46.3374 56.52C46.3374 55.176 45.9874 54.14 45.2874 53.412C44.5874 52.684 43.6074 52.32 42.3474 52.32C41.3954 52.32 40.5134 52.6 39.7014 53.16C38.8894 53.72 38.1474 54.378 37.4754 55.134L34.3254 52.026C35.6134 50.626 36.9294 49.576 38.2734 48.876C39.6454 48.176 41.2694 47.826 43.1454 47.826C44.8814 47.826 46.3934 48.176 47.6814 48.876C48.9974 49.548 50.0194 50.514 50.7474 51.774C51.4754 53.034 51.8394 54.518 51.8394 56.226C51.8394 57.738 51.4194 59.278 50.5794 60.846C49.7394 62.414 48.6334 64.01 47.2614 65.634C45.9174 67.23 44.4614 68.84 42.8934 70.464C43.5934 70.38 44.3494 70.31 45.1614 70.254C46.0014 70.198 46.7434 70.17 47.3874 70.17H53.1414V75H34.5774ZM66.0118 75.504C63.1558 75.504 60.8738 74.314 59.1658 71.934C57.4578 69.554 56.6038 66.096 56.6038 61.56C56.6038 56.996 57.4578 53.566 59.1658 51.27C60.8738 48.974 63.1558 47.826 66.0118 47.826C68.8398 47.826 71.1078 48.988 72.8158 51.312C74.5238 53.608 75.3778 57.024 75.3778 61.56C75.3778 66.096 74.5238 69.554 72.8158 71.934C71.1078 74.314 68.8398 75.504 66.0118 75.504ZM66.0118 71.052C66.7398 71.052 67.3978 70.772 67.9858 70.212C68.6018 69.652 69.0778 68.686 69.4138 67.314C69.7498 65.914 69.9178 63.996 69.9178 61.56C69.9178 59.096 69.7498 57.192 69.4138 55.848C69.0778 54.504 68.6018 53.58 67.9858 53.076C67.3978 52.544 66.7398 52.278 66.0118 52.278C65.2558 52.278 64.5698 52.544 63.9538 53.076C63.3658 53.58 62.9038 54.504 62.5678 55.848C62.2318 57.192 62.0638 59.096 62.0638 61.56C62.0638 63.996 62.2318 65.914 62.5678 67.314C62.9038 68.686 63.3658 69.652 63.9538 70.212C64.5698 70.772 65.2558 71.052 66.0118 71.052ZM78.5462 75V71.682C80.8982 69.47 82.9562 67.468 84.7202 65.676C86.4842 63.856 87.8562 62.204 88.8362 60.72C89.8162 59.236 90.3062 57.836 90.3062 56.52C90.3062 55.176 89.9562 54.14 89.2562 53.412C88.5562 52.684 87.5762 52.32 86.3162 52.32C85.3642 52.32 84.4822 52.6 83.6702 53.16C82.8582 53.72 82.1162 54.378 81.4442 55.134L78.2942 52.026C79.5822 50.626 80.8982 49.576 82.2422 48.876C83.6142 48.176 85.2382 47.826 87.1142 47.826C88.8502 47.826 90.3622 48.176 91.6502 48.876C92.9662 49.548 93.9882 50.514 94.7162 51.774C95.4442 53.034 95.8082 54.518 95.8082 56.226C95.8082 57.738 95.3882 59.278 94.5482 60.846C93.7082 62.414 92.6022 64.01 91.2302 65.634C89.8862 67.23 88.4302 68.84 86.8622 70.464C87.5622 70.38 88.3182 70.31 89.1302 70.254C89.9702 70.198 90.7122 70.17 91.3562 70.17H97.1102V75H78.5462Z" fill="#0E4891"/>
<path fill-rule="evenodd" clip-rule="evenodd" d="M66 105C90.8526 105 111 84.8526 111 60C111 35.1472 90.8526 15 66 15C41.1472 15 21 35.1472 21 60C21 84.8526 41.1472 105 66 105Z" stroke="#0E4891" stroke-width="12"/>
</g>
<defs>
<filter id="filter0_dd_2750_6093" x="0" y="0" width="132" height="129" filterUnits="userSpaceOnUse" color-interpolation-filters="sRGB">
<feFlood flood-opacity="0" result="BackgroundImageFix"/>
<feColorMatrix in="SourceAlpha" type="matrix" values="0 0 0 0 0 0 0 0 0 0 0 0 0 0 0 0 0 0 127 0" result="hardAlpha"/>
<feOffset/>
<feGaussianBlur stdDeviation="0.5"/>
<feColorMatrix type="matrix" values="0 0 0 0 0.0352941 0 0 0 0 0.117647 0 0 0 0 0.258824 0 0 0 0.31 0"/>
<feBlend mode="normal" in2="BackgroundImageFix" result="effect1_dropShadow_2750_6093"/>
<feColorMatrix in="SourceAlpha" type="matrix" values="0 0 0 0 0 0 0 0 0 0 0 0 0 0 0 0 0 0 127 0" result="hardAlpha"/>
<feOffset dy="3"/>
<feGaussianBlur stdDeviation="2.5"/>
<feColorMatrix type="matrix" values="0 0 0 0 0.0352941 0 0 0 0 0.117647 0 0 0 0 0.258824 0 0 0 0.15 0"/>
<feBlend mode="normal" in2="effect1_dropShadow_2750_6093" result="effect2_dropShadow_2750_6093"/>
<feBlend mode="normal" in="SourceGraphic" in2="effect2_dropShadow_2750_6093" result="shape"/>
</filter>
</defs>
</svg>
