<svg width="142" height="145" viewBox="0 0 142 145" fill="none" xmlns="http://www.w3.org/2000/svg">
<path fill-rule="evenodd" clip-rule="evenodd" d="M68.2944 124.35C72.0898 105.79 81.3735 88.373 93.7703 74.1171C92.4981 75.4223 91.2564 76.7547 90.0477 78.1113C75.3577 94.6018 64.8462 115.48 62.3213 137.565C95.6262 141.251 127.542 120.19 136.481 86.8426C140.158 73.1266 139.426 59.2686 135.158 46.769C130.884 48.3526 126.715 50.2284 122.675 52.363C125.745 62.0777 126.172 72.7529 123.339 83.3225C116.565 108.59 93.3601 125.066 68.2944 124.35Z" fill="#009951"/>
<path fill-rule="evenodd" clip-rule="evenodd" d="M68.2944 124.35C72.0898 105.79 81.3735 88.373 93.7703 74.1171C92.4981 75.4223 91.2564 76.7547 90.0477 78.1113C75.3577 94.6018 64.8462 115.48 62.3213 137.565C95.6262 141.251 127.542 120.19 136.481 86.8426C140.158 73.1266 139.426 59.2686 135.158 46.769C130.884 48.3526 126.715 50.2284 122.675 52.363C125.745 62.0777 126.172 72.7529 123.339 83.3225C116.565 108.59 93.3601 125.066 68.2944 124.35Z" fill="#87DF2C"/>
<path fill-rule="evenodd" clip-rule="evenodd" d="M87.6891 2.36736C106.3 7.35209 121.082 19.4867 129.878 35.0213C124.86 35.1703 119.773 35.656 114.66 36.4646L114.657 36.4617C103.464 38.2324 92.1518 41.5302 81.2029 46.1152C91.2447 41.1675 102.298 36.736 112.846 34.1002C105.742 25.3337 95.9033 18.6476 84.1669 15.5046C54.6153 7.58946 24.2391 25.1195 16.3207 54.6593C13.2793 66.0039 13.9957 77.4692 17.7027 87.7384C32.3523 71.6747 48.8878 60.8869 66.2281 53.3142C44.2164 65.3155 23.7469 83.0384 10.926 104.917C1.43942 89.3699 -1.90938 70.1183 3.17796 51.1392C13.0418 14.3443 50.8782 -7.49178 87.6891 2.36736Z" fill="#006FFD"/>
<path fill-rule="evenodd" clip-rule="evenodd" d="M29.8269 137.341L58.4217 145C59.7541 100.273 93.9002 57.5019 136.027 42.8943C111.85 47.3592 89.1977 57.5863 70.3049 73.7088C50.8135 90.3424 36.3529 112.51 29.8269 137.341Z" fill="#B4DBFF"/>
<path fill-rule="evenodd" clip-rule="evenodd" d="M141.19 38.6413C85.8918 34.1423 17.7457 76.8217 3.83569 130.38L26.5869 136.473C33.2885 110.987 48.119 88.2327 68.1274 71.1584C88.9662 53.3749 114.273 42.5819 141.19 38.6413Z" fill="#6FBAFF"/>
</svg>
