<svg width="168" height="198" viewBox="0 0 168 198" fill="none" xmlns="http://www.w3.org/2000/svg">
<path fill-rule="evenodd" clip-rule="evenodd" d="M81.2944 124.35C85.0898 105.79 94.3735 88.373 106.77 74.1171C105.498 75.4223 104.256 76.7547 103.048 78.1113C88.3577 94.6018 77.8462 115.48 75.3213 137.565C108.626 141.251 140.542 120.19 149.481 86.8426C153.158 73.1266 152.426 59.2686 148.158 46.769C143.884 48.3526 139.715 50.2284 135.675 52.363C138.745 62.0777 139.172 72.7529 136.339 83.3225C129.565 108.59 106.36 125.066 81.2944 124.35Z" fill="#009951"/>
<path fill-rule="evenodd" clip-rule="evenodd" d="M81.2944 124.35C85.0898 105.79 94.3735 88.373 106.77 74.1171C105.498 75.4223 104.256 76.7547 103.048 78.1113C88.3577 94.6018 77.8462 115.48 75.3213 137.565C108.626 141.251 140.542 120.19 149.481 86.8426C153.158 73.1266 152.426 59.2686 148.158 46.769C143.884 48.3526 139.715 50.2284 135.675 52.363C138.745 62.0777 139.172 72.7529 136.339 83.3225C129.565 108.59 106.36 125.066 81.2944 124.35Z" fill="#87DF2C"/>
<path fill-rule="evenodd" clip-rule="evenodd" d="M100.689 2.36736C119.3 7.35209 134.082 19.4867 142.878 35.0213C137.86 35.1703 132.773 35.656 127.66 36.4646L127.657 36.4617C116.464 38.2324 105.152 41.5302 94.2029 46.1152C104.245 41.1675 115.298 36.736 125.846 34.1002C118.742 25.3337 108.903 18.6476 97.1669 15.5046C67.6153 7.58946 37.2391 25.1195 29.3207 54.6593C26.2793 66.0039 26.9957 77.4692 30.7027 87.7384C45.3523 71.6747 61.8878 60.8869 79.2281 53.3142C57.2164 65.3155 36.7469 83.0384 23.926 104.917C14.4394 89.3699 11.0906 70.1183 16.178 51.1392C26.0418 14.3443 63.8782 -7.49178 100.689 2.36736Z" fill="#006FFD"/>
<path fill-rule="evenodd" clip-rule="evenodd" d="M42.8269 137.341L71.4217 145C72.7541 100.273 106.9 57.5019 149.027 42.8943C124.85 47.3592 102.198 57.5863 83.3049 73.7088C63.8135 90.3424 49.3529 112.51 42.8269 137.341Z" fill="#B4DBFF"/>
<path fill-rule="evenodd" clip-rule="evenodd" d="M154.19 38.6413C98.8918 34.1423 30.7457 76.8217 16.8357 130.38L39.5869 136.473C46.2885 110.987 61.119 88.2327 81.1274 71.1584C101.966 53.3749 127.273 42.5819 154.19 38.6413Z" fill="#6FBAFF"/>
<path d="M40.9205 181.091H36.1136C36.0795 180.693 35.9886 180.332 35.8409 180.009C35.6989 179.685 35.5 179.406 35.2443 179.173C34.9943 178.935 34.6903 178.753 34.3324 178.628C33.9744 178.497 33.5682 178.432 33.1136 178.432C32.3182 178.432 31.6449 178.625 31.0938 179.011C30.5483 179.398 30.1335 179.952 29.8494 180.673C29.571 181.395 29.4318 182.261 29.4318 183.273C29.4318 184.341 29.5739 185.236 29.858 185.957C30.1477 186.673 30.5653 187.213 31.1108 187.577C31.6563 187.935 32.3125 188.114 33.0795 188.114C33.517 188.114 33.9091 188.06 34.2557 187.952C34.6023 187.838 34.9034 187.676 35.1591 187.466C35.4148 187.256 35.6222 187.003 35.7812 186.707C35.946 186.406 36.0568 186.068 36.1136 185.693L40.9205 185.727C40.8636 186.466 40.6563 187.219 40.2983 187.986C39.9403 188.747 39.4318 189.452 38.7727 190.099C38.1193 190.741 37.3097 191.259 36.3438 191.651C35.3778 192.043 34.2557 192.239 32.9773 192.239C31.375 192.239 29.9375 191.895 28.6648 191.207C27.3977 190.52 26.3949 189.509 25.6562 188.173C24.9233 186.838 24.5568 185.205 24.5568 183.273C24.5568 181.33 24.9318 179.693 25.6818 178.364C26.4318 177.028 27.4432 176.02 28.7159 175.338C29.9886 174.651 31.4091 174.307 32.9773 174.307C34.0795 174.307 35.0938 174.457 36.0199 174.759C36.946 175.06 37.7585 175.5 38.4574 176.08C39.1563 176.653 39.7188 177.361 40.1449 178.202C40.571 179.043 40.8295 180.006 40.9205 181.091ZM48.083 174.545V192H43.3785V174.545H48.083ZM56.9928 192.239C55.5951 192.239 54.3905 191.972 53.3791 191.438C52.3735 190.898 51.5979 190.125 51.0524 189.119C50.5127 188.108 50.2428 186.898 50.2428 185.489C50.2428 184.136 50.5155 182.955 51.061 181.943C51.6064 180.932 52.3763 180.145 53.3706 179.582C54.3649 179.02 55.5382 178.739 56.8905 178.739C57.8791 178.739 58.774 178.892 59.5752 179.199C60.3763 179.506 61.061 179.952 61.6291 180.537C62.1973 181.116 62.6348 181.821 62.9416 182.651C63.2485 183.48 63.4019 184.415 63.4019 185.455V186.545H51.7087V183.955H59.0723C59.0666 183.58 58.9701 183.25 58.7826 182.966C58.6007 182.676 58.3536 182.452 58.0411 182.293C57.7343 182.128 57.3848 182.045 56.9928 182.045C56.6121 182.045 56.2627 182.128 55.9445 182.293C55.6263 182.452 55.3706 182.673 55.1774 182.957C54.9899 183.241 54.8905 183.574 54.8791 183.955V186.75C54.8791 187.17 54.9672 187.545 55.1434 187.875C55.3195 188.205 55.5723 188.463 55.9019 188.651C56.2314 188.838 56.6291 188.932 57.0951 188.932C57.4189 188.932 57.7144 188.886 57.9814 188.795C58.2541 188.705 58.4871 188.574 58.6803 188.403C58.8735 188.227 59.0155 188.017 59.1064 187.773H63.4019C63.2541 188.682 62.9047 189.472 62.3536 190.142C61.8024 190.807 61.0723 191.324 60.1632 191.693C59.2598 192.057 58.203 192.239 56.9928 192.239ZM69.2093 192.205C68.3741 192.205 67.6355 192.068 66.9934 191.795C66.3571 191.517 65.8571 191.097 65.4934 190.534C65.1298 189.972 64.948 189.256 64.948 188.386C64.948 187.67 65.0701 187.06 65.3145 186.554C65.5588 186.043 65.8997 185.625 66.3372 185.301C66.7747 184.977 67.2832 184.73 67.8628 184.56C68.448 184.389 69.0787 184.278 69.7548 184.227C70.4878 184.17 71.0758 184.102 71.519 184.023C71.9679 183.937 72.2917 183.821 72.4906 183.673C72.6895 183.52 72.7889 183.318 72.7889 183.068V183.034C72.7889 182.693 72.6582 182.432 72.3968 182.25C72.1355 182.068 71.8003 181.977 71.3912 181.977C70.9423 181.977 70.5758 182.077 70.2917 182.276C70.0133 182.469 69.8457 182.767 69.7889 183.17H65.4593C65.5162 182.375 65.769 181.642 66.2179 180.972C66.6724 180.295 67.3343 179.756 68.2037 179.352C69.073 178.943 70.1582 178.739 71.4593 178.739C72.3968 178.739 73.2378 178.849 73.9821 179.071C74.7264 179.287 75.3599 179.591 75.8826 179.983C76.4054 180.369 76.8031 180.824 77.0758 181.347C77.3542 181.864 77.4934 182.426 77.4934 183.034V192H73.0957V190.159H72.9934C72.7321 190.648 72.4139 191.043 72.0389 191.344C71.6696 191.645 71.2463 191.864 70.769 192C70.2974 192.136 69.7775 192.205 69.2093 192.205ZM70.7434 189.239C71.1014 189.239 71.4366 189.165 71.7491 189.017C72.0673 188.869 72.3258 188.656 72.5247 188.378C72.7236 188.099 72.823 187.761 72.823 187.364V186.273C72.698 186.324 72.5645 186.372 72.4224 186.418C72.2861 186.463 72.1383 186.506 71.9792 186.545C71.8258 186.585 71.6611 186.622 71.4849 186.656C71.3145 186.69 71.1355 186.722 70.948 186.75C70.5843 186.807 70.2861 186.901 70.0531 187.031C69.8258 187.156 69.6554 187.312 69.5417 187.5C69.4338 187.682 69.3798 187.886 69.3798 188.114C69.3798 188.477 69.5076 188.756 69.7633 188.949C70.019 189.142 70.3457 189.239 70.7434 189.239ZM79.9813 192V178.909H84.5495V181.398H84.6859C84.9245 180.477 85.3023 179.804 85.8194 179.378C86.3421 178.952 86.9529 178.739 87.6518 178.739C87.8563 178.739 88.058 178.756 88.2569 178.79C88.4614 178.818 88.6574 178.861 88.8449 178.918V182.932C88.612 182.852 88.3251 182.793 87.9841 182.753C87.6432 182.713 87.3506 182.693 87.1063 182.693C86.6461 182.693 86.2313 182.798 85.862 183.009C85.4984 183.213 85.2114 183.503 85.0012 183.878C84.791 184.247 84.6859 184.682 84.6859 185.182V192H79.9813ZM97.967 192L94.6943 178.909H99.3988L100.899 186.886H101.001L102.672 178.909H107.24L108.978 186.818H109.081L110.512 178.909H115.217L111.944 192H106.865L105.024 184.977H104.887L103.047 192H97.967ZM120.537 192.205C119.701 192.205 118.963 192.068 118.321 191.795C117.684 191.517 117.184 191.097 116.821 190.534C116.457 189.972 116.275 189.256 116.275 188.386C116.275 187.67 116.397 187.06 116.642 186.554C116.886 186.043 117.227 185.625 117.664 185.301C118.102 184.977 118.61 184.73 119.19 184.56C119.775 184.389 120.406 184.278 121.082 184.227C121.815 184.17 122.403 184.102 122.846 184.023C123.295 183.937 123.619 183.821 123.818 183.673C124.017 183.52 124.116 183.318 124.116 183.068V183.034C124.116 182.693 123.985 182.432 123.724 182.25C123.463 182.068 123.127 181.977 122.718 181.977C122.269 181.977 121.903 182.077 121.619 182.276C121.341 182.469 121.173 182.767 121.116 183.17H116.787C116.843 182.375 117.096 181.642 117.545 180.972C118 180.295 118.662 179.756 119.531 179.352C120.4 178.943 121.485 178.739 122.787 178.739C123.724 178.739 124.565 178.849 125.309 179.071C126.054 179.287 126.687 179.591 127.21 179.983C127.733 180.369 128.13 180.824 128.403 181.347C128.681 181.864 128.821 182.426 128.821 183.034V192H124.423V190.159H124.321C124.059 190.648 123.741 191.043 123.366 191.344C122.997 191.645 122.573 191.864 122.096 192C121.625 192.136 121.105 192.205 120.537 192.205ZM122.071 189.239C122.429 189.239 122.764 189.165 123.076 189.017C123.394 188.869 123.653 188.656 123.852 188.378C124.051 188.099 124.15 187.761 124.15 187.364V186.273C124.025 186.324 123.892 186.372 123.75 186.418C123.613 186.463 123.466 186.506 123.306 186.545C123.153 186.585 122.988 186.622 122.812 186.656C122.642 186.69 122.463 186.722 122.275 186.75C121.912 186.807 121.613 186.901 121.38 187.031C121.153 187.156 120.983 187.312 120.869 187.5C120.761 187.682 120.707 187.886 120.707 188.114C120.707 188.477 120.835 188.756 121.091 188.949C121.346 189.142 121.673 189.239 122.071 189.239ZM133.703 196.909C133.164 196.909 132.649 196.866 132.161 196.781C131.672 196.702 131.243 196.591 130.874 196.449L131.897 193.108C132.283 193.244 132.635 193.332 132.953 193.372C133.277 193.412 133.553 193.389 133.78 193.304C134.013 193.219 134.181 193.057 134.283 192.818L134.385 192.58L129.783 178.909H134.692L136.806 187.977H136.942L139.09 178.909H144.033L139.26 193.091C139.022 193.812 138.675 194.46 138.22 195.034C137.772 195.614 137.181 196.071 136.448 196.406C135.715 196.741 134.8 196.909 133.703 196.909Z" fill="#1E1E1E"/>
<path d="M40.9205 181.091H36.1136C36.0795 180.693 35.9886 180.332 35.8409 180.009C35.6989 179.685 35.5 179.406 35.2443 179.173C34.9943 178.935 34.6903 178.753 34.3324 178.628C33.9744 178.497 33.5682 178.432 33.1136 178.432C32.3182 178.432 31.6449 178.625 31.0938 179.011C30.5483 179.398 30.1335 179.952 29.8494 180.673C29.571 181.395 29.4318 182.261 29.4318 183.273C29.4318 184.341 29.5739 185.236 29.858 185.957C30.1477 186.673 30.5653 187.213 31.1108 187.577C31.6563 187.935 32.3125 188.114 33.0795 188.114C33.517 188.114 33.9091 188.06 34.2557 187.952C34.6023 187.838 34.9034 187.676 35.1591 187.466C35.4148 187.256 35.6222 187.003 35.7812 186.707C35.946 186.406 36.0568 186.068 36.1136 185.693L40.9205 185.727C40.8636 186.466 40.6563 187.219 40.2983 187.986C39.9403 188.747 39.4318 189.452 38.7727 190.099C38.1193 190.741 37.3097 191.259 36.3438 191.651C35.3778 192.043 34.2557 192.239 32.9773 192.239C31.375 192.239 29.9375 191.895 28.6648 191.207C27.3977 190.52 26.3949 189.509 25.6562 188.173C24.9233 186.838 24.5568 185.205 24.5568 183.273C24.5568 181.33 24.9318 179.693 25.6818 178.364C26.4318 177.028 27.4432 176.02 28.7159 175.338C29.9886 174.651 31.4091 174.307 32.9773 174.307C34.0795 174.307 35.0938 174.457 36.0199 174.759C36.946 175.06 37.7585 175.5 38.4574 176.08C39.1563 176.653 39.7188 177.361 40.1449 178.202C40.571 179.043 40.8295 180.006 40.9205 181.091ZM48.083 174.545V192H43.3785V174.545H48.083ZM56.9928 192.239C55.5951 192.239 54.3905 191.972 53.3791 191.438C52.3735 190.898 51.5979 190.125 51.0524 189.119C50.5127 188.108 50.2428 186.898 50.2428 185.489C50.2428 184.136 50.5155 182.955 51.061 181.943C51.6064 180.932 52.3763 180.145 53.3706 179.582C54.3649 179.02 55.5382 178.739 56.8905 178.739C57.8791 178.739 58.774 178.892 59.5752 179.199C60.3763 179.506 61.061 179.952 61.6291 180.537C62.1973 181.116 62.6348 181.821 62.9416 182.651C63.2485 183.48 63.4019 184.415 63.4019 185.455V186.545H51.7087V183.955H59.0723C59.0666 183.58 58.9701 183.25 58.7826 182.966C58.6007 182.676 58.3536 182.452 58.0411 182.293C57.7343 182.128 57.3848 182.045 56.9928 182.045C56.6121 182.045 56.2627 182.128 55.9445 182.293C55.6263 182.452 55.3706 182.673 55.1774 182.957C54.9899 183.241 54.8905 183.574 54.8791 183.955V186.75C54.8791 187.17 54.9672 187.545 55.1434 187.875C55.3195 188.205 55.5723 188.463 55.9019 188.651C56.2314 188.838 56.6291 188.932 57.0951 188.932C57.4189 188.932 57.7144 188.886 57.9814 188.795C58.2541 188.705 58.4871 188.574 58.6803 188.403C58.8735 188.227 59.0155 188.017 59.1064 187.773H63.4019C63.2541 188.682 62.9047 189.472 62.3536 190.142C61.8024 190.807 61.0723 191.324 60.1632 191.693C59.2598 192.057 58.203 192.239 56.9928 192.239ZM69.2093 192.205C68.3741 192.205 67.6355 192.068 66.9934 191.795C66.3571 191.517 65.8571 191.097 65.4934 190.534C65.1298 189.972 64.948 189.256 64.948 188.386C64.948 187.67 65.0701 187.06 65.3145 186.554C65.5588 186.043 65.8997 185.625 66.3372 185.301C66.7747 184.977 67.2832 184.73 67.8628 184.56C68.448 184.389 69.0787 184.278 69.7548 184.227C70.4878 184.17 71.0758 184.102 71.519 184.023C71.9679 183.937 72.2917 183.821 72.4906 183.673C72.6895 183.52 72.7889 183.318 72.7889 183.068V183.034C72.7889 182.693 72.6582 182.432 72.3968 182.25C72.1355 182.068 71.8003 181.977 71.3912 181.977C70.9423 181.977 70.5758 182.077 70.2917 182.276C70.0133 182.469 69.8457 182.767 69.7889 183.17H65.4593C65.5162 182.375 65.769 181.642 66.2179 180.972C66.6724 180.295 67.3343 179.756 68.2037 179.352C69.073 178.943 70.1582 178.739 71.4593 178.739C72.3968 178.739 73.2378 178.849 73.9821 179.071C74.7264 179.287 75.3599 179.591 75.8826 179.983C76.4054 180.369 76.8031 180.824 77.0758 181.347C77.3542 181.864 77.4934 182.426 77.4934 183.034V192H73.0957V190.159H72.9934C72.7321 190.648 72.4139 191.043 72.0389 191.344C71.6696 191.645 71.2463 191.864 70.769 192C70.2974 192.136 69.7775 192.205 69.2093 192.205ZM70.7434 189.239C71.1014 189.239 71.4366 189.165 71.7491 189.017C72.0673 188.869 72.3258 188.656 72.5247 188.378C72.7236 188.099 72.823 187.761 72.823 187.364V186.273C72.698 186.324 72.5645 186.372 72.4224 186.418C72.2861 186.463 72.1383 186.506 71.9792 186.545C71.8258 186.585 71.6611 186.622 71.4849 186.656C71.3145 186.69 71.1355 186.722 70.948 186.75C70.5843 186.807 70.2861 186.901 70.0531 187.031C69.8258 187.156 69.6554 187.312 69.5417 187.5C69.4338 187.682 69.3798 187.886 69.3798 188.114C69.3798 188.477 69.5076 188.756 69.7633 188.949C70.019 189.142 70.3457 189.239 70.7434 189.239ZM79.9813 192V178.909H84.5495V181.398H84.6859C84.9245 180.477 85.3023 179.804 85.8194 179.378C86.3421 178.952 86.9529 178.739 87.6518 178.739C87.8563 178.739 88.058 178.756 88.2569 178.79C88.4614 178.818 88.6574 178.861 88.8449 178.918V182.932C88.612 182.852 88.3251 182.793 87.9841 182.753C87.6432 182.713 87.3506 182.693 87.1063 182.693C86.6461 182.693 86.2313 182.798 85.862 183.009C85.4984 183.213 85.2114 183.503 85.0012 183.878C84.791 184.247 84.6859 184.682 84.6859 185.182V192H79.9813ZM97.967 192L94.6943 178.909H99.3988L100.899 186.886H101.001L102.672 178.909H107.24L108.978 186.818H109.081L110.512 178.909H115.217L111.944 192H106.865L105.024 184.977H104.887L103.047 192H97.967ZM120.537 192.205C119.701 192.205 118.963 192.068 118.321 191.795C117.684 191.517 117.184 191.097 116.821 190.534C116.457 189.972 116.275 189.256 116.275 188.386C116.275 187.67 116.397 187.06 116.642 186.554C116.886 186.043 117.227 185.625 117.664 185.301C118.102 184.977 118.61 184.73 119.19 184.56C119.775 184.389 120.406 184.278 121.082 184.227C121.815 184.17 122.403 184.102 122.846 184.023C123.295 183.937 123.619 183.821 123.818 183.673C124.017 183.52 124.116 183.318 124.116 183.068V183.034C124.116 182.693 123.985 182.432 123.724 182.25C123.463 182.068 123.127 181.977 122.718 181.977C122.269 181.977 121.903 182.077 121.619 182.276C121.341 182.469 121.173 182.767 121.116 183.17H116.787C116.843 182.375 117.096 181.642 117.545 180.972C118 180.295 118.662 179.756 119.531 179.352C120.4 178.943 121.485 178.739 122.787 178.739C123.724 178.739 124.565 178.849 125.309 179.071C126.054 179.287 126.687 179.591 127.21 179.983C127.733 180.369 128.13 180.824 128.403 181.347C128.681 181.864 128.821 182.426 128.821 183.034V192H124.423V190.159H124.321C124.059 190.648 123.741 191.043 123.366 191.344C122.997 191.645 122.573 191.864 122.096 192C121.625 192.136 121.105 192.205 120.537 192.205ZM122.071 189.239C122.429 189.239 122.764 189.165 123.076 189.017C123.394 188.869 123.653 188.656 123.852 188.378C124.051 188.099 124.15 187.761 124.15 187.364V186.273C124.025 186.324 123.892 186.372 123.75 186.418C123.613 186.463 123.466 186.506 123.306 186.545C123.153 186.585 122.988 186.622 122.812 186.656C122.642 186.69 122.463 186.722 122.275 186.75C121.912 186.807 121.613 186.901 121.38 187.031C121.153 187.156 120.983 187.312 120.869 187.5C120.761 187.682 120.707 187.886 120.707 188.114C120.707 188.477 120.835 188.756 121.091 188.949C121.346 189.142 121.673 189.239 122.071 189.239ZM133.703 196.909C133.164 196.909 132.649 196.866 132.161 196.781C131.672 196.702 131.243 196.591 130.874 196.449L131.897 193.108C132.283 193.244 132.635 193.332 132.953 193.372C133.277 193.412 133.553 193.389 133.78 193.304C134.013 193.219 134.181 193.057 134.283 192.818L134.385 192.58L129.783 178.909H134.692L136.806 187.977H136.942L139.09 178.909H144.033L139.26 193.091C139.022 193.812 138.675 194.46 138.22 195.034C137.772 195.614 137.181 196.071 136.448 196.406C135.715 196.741 134.8 196.909 133.703 196.909Z" fill="#F88601"/>
</svg>
