<svg width="132" height="130" viewBox="0 0 132 130" fill="none" xmlns="http://www.w3.org/2000/svg">
<g filter="url(#filter0_dd_2750_6111)">
<rect x="5" y="2.5" width="122" height="119" rx="5" fill="white"/>
<path d="M54.1796 76.004C52.7516 76.004 51.4636 75.836 50.3156 75.5C49.1676 75.192 48.1456 74.758 47.2496 74.198C46.3536 73.61 45.5836 72.952 44.9396 72.224L47.6276 68.57C48.4396 69.354 49.3356 70.012 50.3156 70.544C51.3236 71.076 52.4296 71.342 53.6336 71.342C54.9776 71.342 56.0696 71.048 56.9096 70.46C57.7496 69.844 58.1696 68.99 58.1696 67.898C58.1696 67.086 57.9596 66.386 57.5396 65.798C57.1196 65.182 56.3776 64.706 55.3136 64.37C54.2496 64.034 52.7376 63.866 50.7776 63.866V59.75C52.4296 59.75 53.7176 59.596 54.6416 59.288C55.5936 58.952 56.2656 58.504 56.6576 57.944C57.0776 57.384 57.2876 56.726 57.2876 55.97C57.2876 54.962 56.9796 54.192 56.3636 53.66C55.7476 53.1 54.8936 52.82 53.8016 52.82C52.8216 52.82 51.9256 53.03 51.1136 53.45C50.3016 53.87 49.4896 54.458 48.6776 55.214L45.7376 51.728C46.9696 50.664 48.2576 49.838 49.6016 49.25C50.9456 48.634 52.4296 48.326 54.0536 48.326C55.8456 48.326 57.4136 48.606 58.7576 49.166C60.1016 49.726 61.1516 50.538 61.9076 51.602C62.6636 52.666 63.0416 53.982 63.0416 55.55C63.0416 56.95 62.6496 58.154 61.8656 59.162C61.0816 60.142 59.9756 60.94 58.5476 61.556V61.724C59.5836 62.004 60.5076 62.438 61.3196 63.026C62.1316 63.614 62.7616 64.342 63.2096 65.21C63.6856 66.078 63.9236 67.086 63.9236 68.234C63.9236 69.886 63.4756 71.3 62.5796 72.476C61.7116 73.624 60.5356 74.506 59.0516 75.122C57.5676 75.71 55.9436 76.004 54.1796 76.004ZM75.45 76.004C73.742 76.004 72.258 75.696 70.998 75.08C69.738 74.436 68.688 73.694 67.848 72.854L70.914 69.41C71.39 69.942 72.006 70.404 72.762 70.796C73.546 71.16 74.33 71.342 75.114 71.342C76.178 71.342 77.144 71.034 78.012 70.418C78.88 69.802 79.566 68.78 80.07 67.352C80.602 65.896 80.868 63.936 80.868 61.472C80.868 59.26 80.658 57.51 80.238 56.222C79.818 54.934 79.258 54.024 78.558 53.492C77.886 52.932 77.13 52.652 76.29 52.652C75.646 52.652 75.044 52.82 74.484 53.156C73.952 53.464 73.518 53.954 73.182 54.626C72.874 55.298 72.72 56.152 72.72 57.188C72.72 58.168 72.874 58.966 73.182 59.582C73.518 60.17 73.966 60.618 74.526 60.926C75.086 61.206 75.73 61.346 76.458 61.346C77.186 61.346 77.942 61.122 78.726 60.674C79.51 60.226 80.224 59.442 80.868 58.322L81.12 62.186C80.42 63.194 79.51 63.992 78.39 64.58C77.298 65.168 76.29 65.462 75.366 65.462C73.854 65.462 72.496 65.168 71.292 64.58C70.088 63.964 69.15 63.054 68.478 61.85C67.806 60.618 67.47 59.064 67.47 57.188C67.47 55.368 67.862 53.8 68.646 52.484C69.458 51.14 70.522 50.118 71.838 49.418C73.154 48.69 74.61 48.326 76.206 48.326C77.494 48.326 78.726 48.578 79.902 49.082C81.106 49.586 82.17 50.37 83.094 51.434C84.018 52.498 84.76 53.87 85.32 55.55C85.88 57.202 86.16 59.176 86.16 61.472C86.16 63.992 85.866 66.176 85.278 68.024C84.69 69.844 83.892 71.342 82.884 72.518C81.876 73.694 80.728 74.576 79.44 75.164C78.18 75.724 76.85 76.004 75.45 76.004Z" fill="#CD0F16"/>
<path fill-rule="evenodd" clip-rule="evenodd" d="M66 105.5C90.8526 105.5 111 85.3526 111 60.5C111 35.6472 90.8526 15.5 66 15.5C41.1472 15.5 21 35.6472 21 60.5C21 85.3526 41.1472 105.5 66 105.5Z" stroke="#CD0F16" stroke-width="12"/>
</g>
<defs>
<filter id="filter0_dd_2750_6111" x="0" y="0.5" width="132" height="129" filterUnits="userSpaceOnUse" color-interpolation-filters="sRGB">
<feFlood flood-opacity="0" result="BackgroundImageFix"/>
<feColorMatrix in="SourceAlpha" type="matrix" values="0 0 0 0 0 0 0 0 0 0 0 0 0 0 0 0 0 0 127 0" result="hardAlpha"/>
<feOffset/>
<feGaussianBlur stdDeviation="0.5"/>
<feColorMatrix type="matrix" values="0 0 0 0 0.0352941 0 0 0 0 0.117647 0 0 0 0 0.258824 0 0 0 0.31 0"/>
<feBlend mode="normal" in2="BackgroundImageFix" result="effect1_dropShadow_2750_6111"/>
<feColorMatrix in="SourceAlpha" type="matrix" values="0 0 0 0 0 0 0 0 0 0 0 0 0 0 0 0 0 0 127 0" result="hardAlpha"/>
<feOffset dy="3"/>
<feGaussianBlur stdDeviation="2.5"/>
<feColorMatrix type="matrix" values="0 0 0 0 0.0352941 0 0 0 0 0.117647 0 0 0 0 0.258824 0 0 0 0.15 0"/>
<feBlend mode="normal" in2="effect1_dropShadow_2750_6111" result="effect2_dropShadow_2750_6111"/>
<feBlend mode="normal" in="SourceGraphic" in2="effect2_dropShadow_2750_6111" result="shape"/>
</filter>
</defs>
</svg>
