<svg xmlns="http://www.w3.org/2000/svg" viewBox="0 0 24 24" id="profile"><g data-name="Layer 2"><path fill="green" d="M12,13a6,6,0,1,1,6-6A6,6,0,0,1,12,13ZM12,3a4,4,0,1,0,4,4A4,4,0,0,0,12,3Z"></path><path fill="green" d="M12,22.45A11.19,11.19,0,0,1,5,20a3.62,3.62,0,0,1-1.3-3.62,8.5,8.5,0,0,1,1.85-3.65,1,1,0,0,1,1.51,0h0a1,1,0,0,1,0,1.3,6.39,6.39,0,0,0-1.43,2.8,1.61,1.61,0,0,0,.6,1.61,9.18,9.18,0,0,0,11.52,0,1.61,1.61,0,0,0,.6-1.61A6.39,6.39,0,0,0,16.93,14a1,1,0,0,1,0-1.3h0a1,1,0,0,1,1.51,0,8.5,8.5,0,0,1,1.85,3.65A3.62,3.62,0,0,1,19,20,11.19,11.19,0,0,1,12,22.45Z"></path><circle cx="12" cy="7" r="5" fill="green"></circle></g></svg>